<svg xmlns="http://www.w3.org/2000/svg" width="23.223" height="27.752" viewBox="0 0 23.223 27.752">
  <g id="icons" transform="translate(-2)">
    <g id="delete" transform="translate(2)">
      <path id="Path_86" data-name="Path 86" d="M21.287,8H5.263A1.129,1.129,0,0,0,4.1,9.277L5.96,24.489a2.276,2.276,0,0,0,2.322,1.974h9.87a2.276,2.276,0,0,0,2.322-1.974L22.332,9.277A1.049,1.049,0,0,0,21.287,8Z" transform="translate(-1.664 1.289)" fill="#dbdbdb"/>
      <path id="Path_87" data-name="Path 87" d="M22.9,2.322H17.1A2.329,2.329,0,0,0,14.773,0H12.45a2.329,2.329,0,0,0-2.322,2.322H4.322A2.329,2.329,0,0,0,2,4.645V5.806A1.1,1.1,0,0,0,3.161,6.967h20.9a1.1,1.1,0,0,0,1.161-1.161V4.645A2.329,2.329,0,0,0,22.9,2.322Z" transform="translate(-2)" fill="#dbdbdb"/>
    </g>
  </g>
</svg>
